<?xml version="1.0" encoding="UTF-8" standalone="no"?>
<svg
   xmlns:dc="http://purl.org/dc/elements/1.1/"
   xmlns:cc="http://creativecommons.org/ns#"
   xmlns:rdf="http://www.w3.org/1999/02/22-rdf-syntax-ns#"
   xmlns:svg="http://www.w3.org/2000/svg"
   xmlns="http://www.w3.org/2000/svg"
   xmlns:sodipodi="http://sodipodi.sourceforge.net/DTD/sodipodi-0.dtd"
   xmlns:inkscape="http://www.inkscape.org/namespaces/inkscape"
   id="svg2"
   viewBox="0 0 128 128"
   version="1.1"
   inkscape:version="0.91+devel r"
   sodipodi:docname="icon.svg"
   width="128"
   height="128">
  <title
     id="title4271">Django-AutoTest Icon</title>
  <defs
     id="defs34" />
  <sodipodi:namedview
     pagecolor="#ffffff"
     bordercolor="#666666"
     borderopacity="1"
     objecttolerance="10"
     gridtolerance="10"
     guidetolerance="10"
     inkscape:pageopacity="0"
     inkscape:pageshadow="2"
     inkscape:window-width="1855"
     inkscape:window-height="1056"
     id="namedview32"
     showgrid="false"
     inkscape:snap-global="false"
     fit-margin-top="0"
     fit-margin-left="0"
     fit-margin-right="0"
     fit-margin-bottom="0"
     inkscape:zoom="1"
     inkscape:cx="101.52175"
     inkscape:cy="73.978048"
     inkscape:window-x="65"
     inkscape:window-y="24"
     inkscape:window-maximized="1"
     inkscape:current-layer="svg2" />
  <metadata
     id="metadata29">
    <rdf:RDF>
      <cc:Work>
        <dc:format>image/svg+xml</dc:format>
        <dc:type
           rdf:resource="http://purl.org/dc/dcmitype/StillImage" />
        <cc:license
           rdf:resource="http://creativecommons.org/publicdomain/zero/1.0/" />
        <dc:publisher>
          <cc:Agent
             rdf:about="http://openclipart.org/">
            <dc:title></dc:title>
          </cc:Agent>
        </dc:publisher>
        <dc:title>Django-AutoTest Icon</dc:title>
        <dc:date></dc:date>
        <dc:description></dc:description>
        <dc:source></dc:source>
        <dc:creator>
          <cc:Agent>
            <dc:title>Martin Owens</dc:title>
          </cc:Agent>
        </dc:creator>
        <dc:subject>
          <rdf:Bag />
        </dc:subject>
        <dc:rights>
          <cc:Agent>
            <dc:title>Copyright 2015(c) Martin Owens</dc:title>
          </cc:Agent>
        </dc:rights>
      </cc:Work>
      <cc:License
         rdf:about="http://creativecommons.org/publicdomain/zero/1.0/">
        <cc:permits
           rdf:resource="http://creativecommons.org/ns#Reproduction" />
        <cc:permits
           rdf:resource="http://creativecommons.org/ns#Distribution" />
        <cc:permits
           rdf:resource="http://creativecommons.org/ns#DerivativeWorks" />
      </cc:License>
    </rdf:RDF>
  </metadata>
  <g
     id="g4269"
     transform="matrix(0.2771582,0,0,0.2771582,-29.775854,-35.69562)">
    <path
       id="path3652"
       d="m 338.34775,590.62159 c -127.53183,0 -230.91505,-103.38321 -230.91505,-230.91504 0,-127.53184 103.38322,-230.91505 230.91505,-230.91505 127.53184,0 230.91505,103.38321 230.91505,230.91505 0,127.53183 -103.38321,230.91504 -230.91505,230.91504 z"
       inkscape:connector-curvature="0"
       style="fill:#ffcc00;fill-rule:evenodd;stroke-width:0.98245001" />
    <path
       id="path1874"
       d="M 476.29054,485.60447 338.357,359.6816 213.5939,498.65632 c 76.33234,68.52655 193.67868,62.57425 262.69629,-13.05146 z M 338.357,359.6816 463.1201,220.70688 C 386.78776,152.18033 269.44142,158.13263 200.42381,233.75834 l 137.93354,125.92287 z"
       inkscape:connector-curvature="0"
       style="fill-rule:evenodd;stroke-width:0.89090943" />
    <path
       id="path4260"
       d="M 213.2097,496.76555 338.357,359.68153 200.23823,235.68686 c -68.1045,75.86221 -62.18886,192.48579 12.97108,261.07832 z M 338.357,359.68153 476.47577,483.67621 c 68.1045,-75.86222 62.18886,-192.48579 -12.97108,-261.07833 L 338.35739,359.6819 Z"
       inkscape:connector-curvature="0"
       style="fill:#a40000;fill-rule:evenodd;stroke-width:0.88542229" />
    <path
       style="fill:#cc0000;fill-rule:evenodd;stroke-width:0.56046408"
       inkscape:connector-curvature="0"
       d="M 259.13992,446.45451 338.357,359.6816 250.9291,281.19412 c -43.10952,48.02008 -39.36497,121.84172 8.21057,165.26016 z M 338.357,359.6816 425.7849,438.16908 C 468.89442,390.149 465.14987,316.32736 417.57433,272.90892 l -79.21708,86.77291 z"
       id="path4252" />
    <path
       id="path4254"
       d="M 425.12991,438.89868 338.357,359.6816 259.86952,447.1095 c 48.02008,43.10952 121.84172,39.36497 165.26016,-8.21057 z M 338.357,359.6816 416.84448,272.2537 C 368.8244,229.14418 295.00276,232.88873 251.58432,280.46427 l 86.77291,79.21708 z"
       inkscape:connector-curvature="0"
       style="fill:#ffcc00;fill-opacity:1;fill-rule:evenodd;stroke-width:0.56046408" />
    <path
       id="path4256"
       d="m 298.03617,322.87174 40.32095,36.80997 36.47094,-40.62531 c -22.31359,-20.03179 -56.61645,-18.2918 -76.79179,3.81522 z m 40.32095,36.80997 -36.47095,40.62531 c 22.3136,20.03179 56.61646,18.2918 76.7918,-3.81522 l -40.32096,-36.80997 z"
       inkscape:connector-curvature="0"
       style="fill-rule:evenodd;stroke-width:0.26043203" />
    <path
       style="fill:#ef2929;fill-opacity:1;fill-rule:evenodd;stroke-width:0.26043203"
       inkscape:connector-curvature="0"
       d="m 301.54714,400.00256 36.80998,-40.32096 -40.62531,-36.47094 c -20.03179,22.31359 -18.2918,56.61646 3.81522,76.79179 z m 36.80998,-40.32096 40.62531,36.47095 c 20.03179,-22.31359 18.2918,-56.61645 -3.81522,-76.79179 l -36.80997,40.32095 z"
       id="path4258" />
  </g>
</svg>
